<svg width="801" height="264" viewBox="0 0 801 264" fill="none" xmlns="http://www.w3.org/2000/svg">
<path d="M478.77 120.435C477.6 120.435 476.6 120.095 475.77 119.425C474.94 118.755 474.53 117.895 474.53 116.855V80.1748L452.59 118.335C452.15 119.165 451.48 119.785 450.58 120.205C449.68 120.625 448.73 120.825 447.73 120.825C446.73 120.825 445.78 120.615 444.88 120.205C443.98 119.795 443.31 119.165 442.87 118.335L420.93 80.1748V116.855C420.93 117.895 420.52 118.755 419.69 119.425C418.86 120.105 417.86 120.435 416.69 120.435H414.13L414.06 65.2148H417.79C419.35 65.2148 420.5 65.8148 421.23 67.0048L447.78 114.205L474.26 67.0048C474.99 65.8148 476.14 65.2148 477.7 65.2148H481.43L481.36 120.435H478.8H478.77Z" fill="black"/>
<path d="M623.25 65.2246C622.27 65.2246 621.45 65.5746 620.76 66.2746C620.08 66.9746 619.74 67.8146 619.74 68.7946V111.495L586.46 66.1646C586.02 65.5446 585.44 65.2346 584.7 65.2346H577.61V120.485H581.12C582.09 120.485 582.92 120.135 583.61 119.435C584.29 118.735 584.63 117.895 584.63 116.915V74.2146L617.84 119.545C618.28 120.165 618.86 120.475 619.59 120.475H626.76V65.2246H623.25Z" fill="black"/>
<path d="M478.33 158.724C478.33 160.164 478.17 161.474 477.85 162.634C477.53 163.794 477.14 164.824 476.68 165.734C476.22 166.634 475.74 167.394 475.25 168.014C474.76 168.634 474.35 169.154 474.01 169.564C476.25 171.214 478.04 173.084 479.39 175.174C480.73 177.264 481.4 179.834 481.4 182.874C481.4 184.884 481.03 186.784 480.3 188.564C479.57 190.344 478.58 191.934 477.34 193.324C476.1 194.714 474.63 195.854 472.95 196.724C471.27 197.604 469.45 198.144 467.5 198.354H414.03V195.024C414.03 194.044 414.37 193.204 415.05 192.514C415.73 191.814 416.56 191.474 417.54 191.474H466.62C467.69 191.424 468.72 191.164 469.69 190.704C470.66 190.244 471.52 189.604 472.25 188.804C472.98 188.004 473.57 187.104 474 186.094C474.44 185.084 474.66 184.014 474.66 182.884C474.66 181.754 474.43 180.594 473.97 179.554C473.51 178.524 472.9 177.624 472.14 176.844C471.38 176.074 470.48 175.454 469.43 174.984C468.38 174.524 467.27 174.284 466.1 174.284H464.27C463.78 174.284 462.94 174.274 461.75 174.244C460.56 174.214 458.64 174.204 456.01 174.204H417.53C416.55 174.204 415.73 173.854 415.04 173.164C414.36 172.464 414.02 171.634 414.02 170.654V167.324H462.96C464.13 167.324 465.24 167.094 466.29 166.624C467.34 166.164 468.25 165.544 469.03 164.764C469.81 163.994 470.42 163.084 470.86 162.054C471.3 161.024 471.52 159.914 471.52 158.724C471.52 157.534 471.3 156.414 470.86 155.354C470.42 154.294 469.81 153.384 469.03 152.604C468.25 151.834 467.34 151.214 466.29 150.744C465.24 150.284 464.13 150.044 462.96 150.044H417.53C416.55 150.044 415.73 149.694 415.04 149.004C414.36 148.304 414.02 147.474 414.02 146.484V143.154H460.58C461.53 143.154 462.24 143.144 462.7 143.114C463.16 143.084 463.59 143.074 463.98 143.074V143.154C465.98 143.304 467.84 143.814 469.58 144.664C471.31 145.514 472.82 146.634 474.11 148.034C475.4 149.424 476.43 151.044 477.18 152.874C477.94 154.704 478.31 156.654 478.31 158.714L478.33 158.724Z" fill="black"/>
<path d="M627.68 146.525C627.68 145.545 627.35 144.705 626.69 144.005C626.03 143.305 625.21 142.955 624.22 142.955H578.29V146.285C578.29 147.265 578.63 148.105 579.32 148.805C580.01 149.505 580.84 149.855 581.82 149.855H599.48V194.645C599.48 195.625 599.82 196.465 600.51 197.165C601.2 197.865 602.03 198.215 603.01 198.215H606.54V149.855H627.66V146.525H627.68Z" fill="black"/>
<path d="M652.41 198.215C651.43 198.215 650.59 197.865 649.91 197.165C649.22 196.465 648.88 195.625 648.88 194.645V142.955H652.41C653.39 142.955 654.23 143.305 654.91 144.005C655.6 144.705 655.94 145.545 655.94 146.525V198.215H652.41Z" fill="black"/>
<path d="M311.85 191.685C311.14 190.755 310.41 189.825 309.66 188.895C308.9 187.965 308 186.835 306.95 185.495C305.9 184.155 304.65 182.555 303.18 180.695C305.06 183.085 301.95 179.085 297.69 173.885C299.88 173.935 305.74 173.535 307.64 172.735C309.54 171.935 311.19 170.825 312.58 169.405C313.97 167.985 315.08 166.335 315.91 164.455C316.74 162.575 317.15 160.575 317.15 158.455C317.15 156.335 316.74 154.265 315.91 152.385C315.08 150.505 313.95 148.865 312.51 147.475C311.07 146.085 309.4 144.985 307.5 144.185C305.6 143.385 299.75 143.045 297.55 143.095H269.61C269.32 143.015 269.03 142.965 268.71 142.965H265.2V143.085H265.15V145.095C265.15 145.335 265.17 145.555 265.2 145.785V194.655C265.2 195.635 265.54 196.475 266.22 197.175C266.9 197.875 267.73 198.225 268.71 198.225H272.22V150.055H297.91C299.08 150.055 303.99 150.245 305.04 150.685C306.09 151.125 307 151.715 307.78 152.465C308.56 153.215 309.18 154.105 309.65 155.135C310.11 156.165 310.34 157.275 310.34 158.465C310.34 159.655 310.11 160.765 309.65 161.795C309.19 162.825 308.56 163.715 307.78 164.465C307 165.215 306.09 165.815 305.04 166.285C303.99 166.745 299.08 167.015 297.91 167.015H283.21C287.74 172.635 291.46 177.255 294.36 180.865C297.26 184.475 299.58 187.365 301.31 189.535C303.04 191.705 304.32 193.305 305.15 194.335C305.98 195.365 306.56 196.085 306.91 196.505C307.25 196.915 307.47 197.175 307.57 197.275C307.67 197.375 307.86 197.615 308.16 197.975L308.31 197.825C308.99 198.185 309.77 198.365 310.65 198.365H317.16C315.99 196.925 314.99 195.685 314.16 194.655C313.33 193.625 312.56 192.645 311.86 191.715L311.85 191.685Z" fill="black"/>
<path d="M316.06 66.2648C315.34 65.5648 314.46 65.2148 313.43 65.2148H309.71V85.9848H272.17V68.7848C272.17 67.8048 271.83 66.9648 271.15 66.2648C270.47 65.5648 269.64 65.2148 268.66 65.2148H265.15V116.905C265.15 117.885 265.49 118.725 266.17 119.425C266.85 120.125 267.68 120.475 268.66 120.475H272.17V92.8048H309.71V116.905C309.71 117.885 310.07 118.725 310.79 119.425C311.51 120.125 312.39 120.475 313.42 120.475H317.14V68.7848C317.14 67.8048 316.78 66.9648 316.06 66.2648Z" fill="black"/>
<path d="M704.42 150.054C701.59 150.054 698.93 150.594 696.45 151.684C693.96 152.764 691.78 154.254 689.9 156.134C688.02 158.014 686.55 160.214 685.47 162.714C684.4 165.214 683.86 167.914 683.86 170.804C683.86 173.694 684.4 176.314 685.47 178.814C686.54 181.314 688.02 183.514 689.9 185.394C691.78 187.274 693.96 188.764 696.45 189.844C698.94 190.924 701.59 191.474 704.42 191.474H724.46C725.43 191.474 726.26 191.824 726.95 192.514C727.63 193.214 727.97 194.054 727.97 195.024V198.354H703.03C699.42 198.144 696.04 197.284 692.9 195.764C689.75 194.244 687.01 192.244 684.67 189.764C682.33 187.284 680.49 184.424 679.15 181.174C677.81 177.924 677.14 174.464 677.14 170.804C677.14 167.144 677.81 163.604 679.15 160.354C680.49 157.104 682.33 154.244 684.67 151.764C687.01 149.284 689.75 147.284 692.9 145.764C696.04 144.244 699.42 143.374 703.03 143.174H727.97V146.504C727.97 147.484 727.63 148.324 726.95 149.024C726.27 149.724 725.44 150.064 724.46 150.064H704.42V150.054Z" fill="black"/>
<path d="M798.79 176.715C797.99 174.835 796.89 173.205 795.5 171.815C794.11 170.425 792.49 169.315 790.64 168.495C788.79 167.675 776.2 167.255 774.11 167.255H772.93C772.69 167.205 772.44 167.175 772.17 167.175C771 167.175 762.18 166.955 761.13 166.515C760.08 166.075 759.18 165.475 758.42 164.705C757.66 163.935 757.05 163.015 756.59 161.965C756.13 160.915 755.9 159.795 755.9 158.605C755.9 157.415 756.13 156.315 756.59 155.285C757.05 154.255 757.66 153.355 758.42 152.585C759.18 151.815 760.08 151.195 761.13 150.735C762.18 150.275 763.29 150.045 764.46 150.045H794.3C795.28 150.045 796.1 149.695 796.79 149.005C797.47 148.305 797.81 147.445 797.81 146.415V143.175H764.97C762.78 143.075 760.72 143.425 758.79 144.215C756.86 145.015 755.19 146.115 753.78 147.535C752.36 148.955 751.24 150.615 750.42 152.515C749.59 154.415 749.18 156.455 749.18 158.615C749.18 160.775 749.58 162.795 750.39 164.675C751.19 166.555 752.29 168.185 753.68 169.575C755.07 170.965 756.69 172.075 758.54 172.895C760.39 173.715 770.08 174.135 772.17 174.135H773.37C773.54 174.165 773.71 174.205 773.9 174.215C775.31 174.215 787.18 174.475 788.28 174.985C789.38 175.495 790.29 176.165 791.02 176.995C791.75 177.815 792.31 178.735 792.7 179.735C793.09 180.735 793.29 181.755 793.29 182.785C793.29 183.915 793.07 184.995 792.63 186.025C792.19 187.055 791.61 187.955 790.87 188.725C790.14 189.495 789.29 190.115 788.31 190.575C787.33 191.035 786.29 191.295 785.17 191.345H752.7C751.72 191.345 750.9 191.695 750.21 192.385C749.53 193.075 749.19 193.915 749.19 194.895V198.215H785.76C787.81 198.065 789.7 197.545 791.43 196.675C793.16 195.795 794.66 194.665 795.93 193.275C797.2 191.885 798.2 190.295 798.93 188.485C799.66 186.685 800.03 184.775 800.03 182.775C800.03 180.615 799.63 178.595 798.82 176.715H798.79Z" fill="black"/>
<path d="M387.94 65.2246C387.4 65.2246 386.96 65.4046 386.62 65.7646C386.28 66.1246 386.11 66.5646 386.11 67.0846V93.7446C386.11 97.6746 385.1 101.285 383.08 104.595C381.06 107.905 378.31 110.455 374.85 112.265L373.13 112.805C368.23 113.975 363.13 114.015 358.21 112.925L357.81 112.835C357.33 112.665 356.89 112.495 356.47 112.345C356.42 112.325 356.38 112.295 356.34 112.265C352.88 110.455 350.13 107.895 348.11 104.595C346.09 101.285 345.08 97.6746 345.08 93.7446V67.0846C345.08 66.5646 344.91 66.1246 344.57 65.7646C344.23 65.4046 343.81 65.2246 343.33 65.2246H338.36V93.7446C338.36 96.7446 338.82 99.6346 339.75 102.425C340.68 105.215 341.98 107.775 343.66 110.095C345.34 112.425 347.35 114.445 349.69 116.175C352.03 117.905 354.61 119.215 357.44 120.085L358.76 120.475L358.94 120.505C363.18 121.125 367.48 121.155 371.72 120.585L372.51 120.475L373.75 120.085C376.63 119.155 379.25 117.825 381.61 116.095C383.98 114.365 386 112.325 387.68 109.975C389.36 107.625 390.65 105.045 391.56 102.225C392.46 99.4146 392.89 96.4546 392.84 93.3546V65.2246H387.94ZM358.19 112.965C358.25 112.985 358.29 113.005 358.31 113.005C358.29 113.005 358.26 112.985 358.19 112.965Z" fill="black"/>
<path d="M558.4 170.824C558.4 174.604 557.64 178.174 556.11 181.544C554.58 184.914 552.51 187.844 549.9 190.364C547.28 192.874 544.23 194.854 540.74 196.304C537.25 197.754 533.5 198.474 529.52 198.474C525.54 198.474 521.78 197.754 518.26 196.304C514.74 194.854 511.67 192.874 509.06 190.364C506.44 187.854 504.37 184.914 502.85 181.544C501.32 178.174 500.56 174.604 500.56 170.824C500.56 167.044 501.32 163.394 502.85 160.024C504.38 156.664 506.45 153.724 509.06 151.214C511.67 148.704 514.74 146.724 518.26 145.274C521.78 143.824 525.53 143.104 529.52 143.104C533.51 143.104 537.25 143.834 540.74 145.274C544.23 146.724 547.29 148.704 549.9 151.214C552.51 153.724 554.59 156.664 556.11 160.024C557.64 163.394 558.4 166.994 558.4 170.824ZM529.51 150.014C526.51 150.014 523.69 150.554 521.04 151.644C518.4 152.734 516.08 154.224 514.09 156.114C512.1 158.004 510.53 160.204 509.39 162.714C508.25 165.224 507.68 167.934 507.68 170.834C507.68 173.734 508.25 176.364 509.39 178.874C510.53 181.384 512.1 183.584 514.09 185.474C516.08 187.364 518.4 188.854 521.04 189.944C523.68 191.034 526.5 191.574 529.51 191.574C532.52 191.574 535.34 191.034 537.98 189.944C540.62 188.854 542.92 187.364 544.89 185.474C546.86 183.584 548.41 181.384 549.55 178.874C550.69 176.364 551.26 173.684 551.26 170.834C551.26 167.984 550.69 165.234 549.55 162.714C548.41 160.204 546.86 158.004 544.89 156.114C542.92 154.224 540.62 152.734 537.98 151.644C535.34 150.554 532.52 150.014 529.51 150.014Z" fill="black"/>
<path d="M394.52 170.824C394.52 174.604 393.76 178.174 392.23 181.544C390.7 184.914 388.63 187.844 386.02 190.364C383.4 192.874 380.35 194.854 376.86 196.304C373.37 197.754 369.62 198.474 365.64 198.474C361.66 198.474 357.9 197.754 354.38 196.304C350.86 194.854 347.79 192.874 345.18 190.364C342.56 187.854 340.49 184.914 338.97 181.544C337.44 178.174 336.68 174.604 336.68 170.824C336.68 167.044 337.44 163.394 338.97 160.024C340.5 156.664 342.57 153.724 345.18 151.214C347.79 148.704 350.86 146.724 354.38 145.274C357.9 143.824 361.65 143.104 365.64 143.104C369.63 143.104 373.37 143.834 376.86 145.274C380.35 146.724 383.41 148.704 386.02 151.214C388.63 153.724 390.71 156.664 392.23 160.024C393.76 163.394 394.52 166.994 394.52 170.824ZM365.63 150.014C362.63 150.014 359.81 150.554 357.16 151.644C354.52 152.734 352.2 154.224 350.21 156.114C348.22 158.004 346.65 160.204 345.51 162.714C344.37 165.224 343.8 167.934 343.8 170.834C343.8 173.734 344.37 176.364 345.51 178.874C346.65 181.384 348.22 183.584 350.21 185.474C352.2 187.364 354.52 188.854 357.16 189.944C359.8 191.034 362.62 191.574 365.63 191.574C368.64 191.574 371.46 191.034 374.1 189.944C376.74 188.854 379.04 187.364 381.01 185.474C382.98 183.584 384.53 181.384 385.67 178.874C386.81 176.364 387.38 173.684 387.38 170.834C387.38 167.984 386.81 165.234 385.67 162.714C384.53 160.204 382.98 158.004 381.01 156.114C379.04 154.224 376.74 152.734 374.1 151.644C371.46 150.554 368.64 150.014 365.63 150.014Z" fill="black"/>
<path d="M507.13 120.474C507.67 120.474 508.11 120.294 508.45 119.934C508.79 119.574 508.96 119.134 508.96 118.614V91.9542C508.96 88.0242 509.97 84.4142 511.99 81.1042C514.01 77.7942 516.76 75.2442 520.22 73.4342L521.94 72.8942C526.84 71.7242 531.94 71.6842 536.86 72.7742L537.26 72.8642C537.74 73.0342 538.18 73.2042 538.6 73.3542C538.65 73.3742 538.69 73.4042 538.73 73.4342C542.19 75.2442 544.94 77.8042 546.96 81.1042C548.98 84.4142 549.99 88.0242 549.99 91.9542V118.614C549.99 119.134 550.16 119.574 550.5 119.934C550.84 120.294 551.26 120.474 551.74 120.474H556.71V91.9542C556.71 88.9542 556.25 86.0642 555.32 83.2742C554.39 80.4842 553.09 77.9242 551.41 75.6042C549.73 73.2742 547.72 71.2542 545.38 69.5242C543.04 67.7942 540.46 66.4842 537.63 65.6142L536.31 65.2242L536.13 65.1942C531.89 64.5742 527.59 64.5442 523.35 65.1142L522.56 65.2242L521.32 65.6142C518.44 66.5442 515.82 67.8742 513.46 69.6042C511.09 71.3342 509.07 73.3742 507.39 75.7242C505.71 78.0742 504.42 80.6542 503.51 83.4742C502.61 86.2842 502.18 89.2442 502.23 92.3442V120.474H507.13ZM536.88 72.7342C536.82 72.7142 536.78 72.6942 536.76 72.6942C536.78 72.6942 536.81 72.7142 536.88 72.7342Z" fill="black"/>
<path d="M218.7 51.375L138.83 5.265C126.67 -1.755 111.68 -1.755 99.52 5.265L19.65 51.375C7.49 58.395 0 71.375 0 85.415V180.075C0 188.215 2.82 195.945 7.77 202.085C10.23 205.135 15.2 203.295 15.21 199.375C15.24 181.755 15.24 164.125 15.18 146.515C15.22 140.655 20.02 136.125 25 133.805C32.2 130.225 41.29 131.795 47.4 136.855C50.7 139.575 52.92 143.695 52.94 148.005C53.17 174.835 53.15 201.655 52.99 228.485C52.99 229.995 53.78 231.395 55.09 232.155L59.87 234.915C62.65 236.525 66.15 234.545 66.19 231.325C66.41 212.395 66.09 193.465 66.27 174.535C66.16 170.505 68.01 166.605 70.89 163.845C77.79 157.495 88.95 156.755 96.97 161.405C100.82 163.665 104.31 167.595 104.26 172.295C104.21 200.705 104.18 229.115 104.15 257.525C104.15 259.265 105.21 260.855 106.84 261.465C116.58 265.125 127.55 264.315 136.73 259.015L218.7 211.685C230.86 204.665 238.35 191.685 238.35 177.645V85.425C238.35 71.385 230.86 58.405 218.7 51.385V51.375ZM51.89 113.175C48.24 122.595 36.49 127.905 27.09 123.945C20.48 121.295 15.51 114.755 15.14 107.585C14.46 98.895 21.14 90.615 29.51 88.715C31.17 88.285 32.89 88.085 34.61 88.115C38.38 88.195 42.12 89.395 45.13 91.725C51.62 96.445 55.02 105.545 51.89 113.155V113.175ZM103.71 148.705C103.24 149.995 101.75 150.475 100.5 150.375C90.05 150.375 79.6 150.385 69.16 150.375C67.3 150.585 66.52 148.345 66.46 146.845C66.3 137.105 66.48 127.365 66.4 117.615C66.4 117.605 66.4 117.585 66.4 117.575C66.3 115.465 67.95 113.655 70.05 113.455C70.98 113.365 71.92 113.335 72.86 113.325C74.49 113.315 76.14 113.375 77.76 113.345C85.59 113.455 93.41 113.285 101.24 113.385C103.15 113.225 104.28 115.285 104.21 116.965C104.35 125.495 104.1 134.035 104.28 142.565C104.26 144.625 104.35 146.735 103.72 148.715L103.71 148.705Z" fill="black"/>
</svg>
