<svg width="535" height="134" viewBox="0 0 535 134" fill="none" xmlns="http://www.w3.org/2000/svg">
<path d="M533.64 112.008C532.84 110.128 531.74 108.498 530.35 107.108C528.96 105.718 527.34 104.608 525.49 103.788C523.64 102.968 511.05 102.548 508.96 102.548H507.78C507.54 102.498 507.29 102.468 507.02 102.468C505.85 102.468 497.03 102.248 495.98 101.808C494.93 101.368 494.03 100.768 493.27 99.9979C492.51 99.2279 491.9 98.3079 491.44 97.2579C490.98 96.2079 490.75 95.0879 490.75 93.8979C490.75 92.7079 490.98 91.6079 491.44 90.5779C491.9 89.5479 492.51 88.6479 493.27 87.8779C494.03 87.1079 494.93 86.4879 495.98 86.0279C497.03 85.5679 498.14 85.3379 499.31 85.3379H529.15C530.13 85.3379 530.95 84.9879 531.64 84.2979C532.32 83.5979 532.66 82.7379 532.66 81.7079V78.4679H499.82C497.63 78.3679 495.57 78.7179 493.64 79.5079C491.71 80.3079 490.04 81.4079 488.63 82.8279C487.21 84.2479 486.09 85.9079 485.27 87.8079C484.44 89.7079 484.03 91.7479 484.03 93.9079C484.03 96.0679 484.43 98.0879 485.24 99.9679C486.04 101.848 487.14 103.478 488.53 104.868C489.92 106.258 491.54 107.368 493.39 108.188C495.24 109.008 504.93 109.428 507.02 109.428H508.22C508.39 109.458 508.56 109.498 508.75 109.508C510.16 109.508 522.03 109.768 523.13 110.278C524.23 110.788 525.14 111.458 525.87 112.288C526.6 113.108 527.16 114.028 527.55 115.028C527.94 116.028 528.14 117.048 528.14 118.078C528.14 119.208 527.92 120.288 527.48 121.318C527.04 122.348 526.46 123.248 525.72 124.018C524.99 124.788 524.14 125.408 523.16 125.868C522.18 126.328 521.14 126.588 520.02 126.638H487.55C486.57 126.638 485.75 126.988 485.06 127.678C484.38 128.368 484.04 129.208 484.04 130.188V133.508H520.61C522.66 133.358 524.55 132.838 526.28 131.968C528.01 131.088 529.51 129.958 530.78 128.568C532.05 127.178 533.05 125.588 533.78 123.778C534.51 121.978 534.88 120.068 534.88 118.068C534.88 115.908 534.48 113.888 533.67 112.008H533.64Z" fill="black"/>
<path d="M439.27 85.3468C436.44 85.3468 433.78 85.8868 431.3 86.9768C428.81 88.0568 426.63 89.5468 424.75 91.4268C422.87 93.3068 421.4 95.5068 420.32 98.0068C419.25 100.507 418.71 103.207 418.71 106.097C418.71 108.987 419.25 111.607 420.32 114.107C421.39 116.607 422.87 118.807 424.75 120.687C426.63 122.567 428.81 124.057 431.3 125.137C433.79 126.217 436.44 126.767 439.27 126.767H459.31C460.28 126.767 461.11 127.117 461.8 127.807C462.48 128.507 462.82 129.347 462.82 130.317V133.647H437.88C434.27 133.437 430.89 132.577 427.75 131.057C424.6 129.537 421.86 127.537 419.52 125.057C417.18 122.577 415.34 119.717 414 116.467C412.66 113.217 411.99 109.757 411.99 106.097C411.99 102.437 412.66 98.8968 414 95.6468C415.34 92.3968 417.18 89.5368 419.52 87.0568C421.86 84.5768 424.6 82.5768 427.75 81.0568C430.89 79.5368 434.27 78.6668 437.88 78.4668H462.82V81.7968C462.82 82.7768 462.48 83.6168 461.8 84.3168C461.12 85.0168 460.29 85.3568 459.31 85.3568H439.27V85.3468Z" fill="black"/>
<path d="M387.26 133.508C386.28 133.508 385.44 133.158 384.76 132.458C384.07 131.758 383.73 130.918 383.73 129.938V78.248H387.26C388.24 78.248 389.08 78.598 389.76 79.298C390.45 79.998 390.79 80.838 390.79 81.818V133.508H387.26Z" fill="black"/>
<path d="M362.53 81.818C362.53 80.838 362.2 79.998 361.54 79.298C360.88 78.598 360.06 78.248 359.07 78.248H313.14V81.578C313.14 82.558 313.48 83.398 314.17 84.098C314.86 84.798 315.69 85.148 316.67 85.148H334.33V129.938C334.33 130.918 334.67 131.758 335.36 132.458C336.05 133.158 336.88 133.508 337.86 133.508H341.39V85.148H362.51V81.818H362.53Z" fill="black"/>
<path d="M293.25 106.116C293.25 109.896 292.49 113.466 290.96 116.836C289.43 120.206 287.36 123.136 284.75 125.656C282.13 128.166 279.08 130.146 275.59 131.596C272.1 133.046 268.35 133.766 264.37 133.766C260.39 133.766 256.63 133.046 253.11 131.596C249.59 130.146 246.52 128.166 243.91 125.656C241.29 123.146 239.22 120.206 237.7 116.836C236.17 113.466 235.41 109.896 235.41 106.116C235.41 102.336 236.17 98.6865 237.7 95.3165C239.23 91.9565 241.3 89.0165 243.91 86.5065C246.52 83.9965 249.59 82.0165 253.11 80.5665C256.63 79.1165 260.38 78.3965 264.37 78.3965C268.36 78.3965 272.1 79.1265 275.59 80.5665C279.08 82.0165 282.14 83.9965 284.75 86.5065C287.36 89.0165 289.44 91.9565 290.96 95.3165C292.49 98.6865 293.25 102.286 293.25 106.116ZM264.36 85.3065C261.36 85.3065 258.54 85.8465 255.89 86.9365C253.25 88.0265 250.93 89.5165 248.94 91.4065C246.95 93.2965 245.38 95.4965 244.24 98.0065C243.1 100.516 242.53 103.226 242.53 106.126C242.53 109.026 243.1 111.656 244.24 114.166C245.38 116.676 246.95 118.876 248.94 120.766C250.93 122.656 253.25 124.146 255.89 125.236C258.53 126.326 261.35 126.866 264.36 126.866C267.37 126.866 270.19 126.326 272.83 125.236C275.47 124.146 277.77 122.656 279.74 120.766C281.71 118.876 283.26 116.676 284.4 114.166C285.54 111.656 286.11 108.976 286.11 106.126C286.11 103.276 285.54 100.526 284.4 98.0065C283.26 95.4965 281.71 93.2965 279.74 91.4065C277.77 89.5165 275.47 88.0265 272.83 86.9365C270.19 85.8465 267.37 85.3065 264.36 85.3065Z" fill="black"/>
<path d="M213.18 94.0172C213.18 95.4572 213.02 96.7672 212.7 97.9272C212.38 99.0872 211.99 100.117 211.53 101.027C211.07 101.927 210.59 102.687 210.1 103.307C209.61 103.927 209.2 104.447 208.86 104.857C211.1 106.507 212.89 108.377 214.24 110.467C215.58 112.557 216.25 115.127 216.25 118.167C216.25 120.177 215.88 122.077 215.15 123.857C214.42 125.637 213.43 127.227 212.19 128.617C210.95 130.007 209.48 131.147 207.8 132.017C206.12 132.897 204.3 133.437 202.35 133.647H148.88V130.317C148.88 129.337 149.22 128.497 149.9 127.807C150.58 127.107 151.41 126.767 152.39 126.767H201.47C202.54 126.717 203.57 126.457 204.54 125.997C205.51 125.537 206.37 124.897 207.1 124.097C207.83 123.297 208.42 122.397 208.85 121.387C209.29 120.377 209.51 119.307 209.51 118.177C209.51 117.047 209.28 115.887 208.82 114.847C208.36 113.817 207.75 112.917 206.99 112.137C206.23 111.367 205.33 110.747 204.28 110.277C203.23 109.817 202.12 109.577 200.95 109.577H199.12C198.63 109.577 197.79 109.567 196.6 109.537C195.41 109.507 193.49 109.497 190.86 109.497H152.38C151.4 109.497 150.58 109.147 149.89 108.457C149.21 107.757 148.87 106.927 148.87 105.947V102.617H197.81C198.98 102.617 200.09 102.387 201.14 101.917C202.19 101.457 203.1 100.837 203.88 100.057C204.66 99.2872 205.27 98.3772 205.71 97.3472C206.15 96.3172 206.37 95.2072 206.37 94.0172C206.37 92.8272 206.15 91.7072 205.71 90.6472C205.27 89.5872 204.66 88.6772 203.88 87.8972C203.1 87.1272 202.19 86.5072 201.14 86.0372C200.09 85.5772 198.98 85.3372 197.81 85.3372H152.38C151.4 85.3372 150.58 84.9872 149.89 84.2972C149.21 83.5972 148.87 82.7672 148.87 81.7772V78.4472H195.43C196.38 78.4472 197.09 78.4372 197.55 78.4072C198.01 78.3772 198.44 78.3672 198.83 78.3672V78.4472C200.83 78.5972 202.69 79.1072 204.43 79.9572C206.16 80.8072 207.67 81.9272 208.96 83.3272C210.25 84.7172 211.28 86.3372 212.03 88.1672C212.79 89.9972 213.16 91.9472 213.16 94.0072L213.18 94.0172Z" fill="black"/>
<path d="M129.37 106.116C129.37 109.896 128.61 113.466 127.08 116.836C125.55 120.206 123.48 123.136 120.87 125.656C118.25 128.166 115.2 130.146 111.71 131.596C108.22 133.046 104.47 133.766 100.49 133.766C96.5098 133.766 92.7498 133.046 89.2298 131.596C85.7098 130.146 82.6398 128.166 80.0298 125.656C77.4098 123.146 75.3398 120.206 73.8198 116.836C72.2898 113.466 71.5298 109.896 71.5298 106.116C71.5298 102.336 72.2898 98.6865 73.8198 95.3165C75.3498 91.9565 77.4198 89.0165 80.0298 86.5065C82.6398 83.9965 85.7098 82.0165 89.2298 80.5665C92.7498 79.1165 96.4998 78.3965 100.49 78.3965C104.48 78.3965 108.22 79.1265 111.71 80.5665C115.2 82.0165 118.26 83.9965 120.87 86.5065C123.48 89.0165 125.56 91.9565 127.08 95.3165C128.61 98.6865 129.37 102.286 129.37 106.116ZM100.48 85.3065C97.4798 85.3065 94.6598 85.8465 92.0098 86.9365C89.3698 88.0265 87.0498 89.5165 85.0598 91.4065C83.0698 93.2965 81.4998 95.4965 80.3598 98.0065C79.2198 100.516 78.6498 103.226 78.6498 106.126C78.6498 109.026 79.2198 111.656 80.3598 114.166C81.4998 116.676 83.0698 118.876 85.0598 120.766C87.0498 122.656 89.3698 124.146 92.0098 125.236C94.6498 126.326 97.4698 126.866 100.48 126.866C103.49 126.866 106.31 126.326 108.95 125.236C111.59 124.146 113.89 122.656 115.86 120.766C117.83 118.876 119.38 116.676 120.52 114.166C121.66 111.656 122.23 108.976 122.23 106.126C122.23 103.276 121.66 100.526 120.52 98.0065C119.38 95.4965 117.83 93.2965 115.86 91.4065C113.89 89.5165 111.59 88.0265 108.95 86.9365C106.31 85.8465 103.49 85.3065 100.48 85.3065Z" fill="black"/>
<path d="M46.7 126.978C45.99 126.048 45.26 125.118 44.51 124.188C43.75 123.258 42.85 122.128 41.8 120.788C40.75 119.448 39.5 117.848 38.03 115.988C39.91 118.378 36.8 114.378 32.54 109.178C34.73 109.228 40.59 108.828 42.49 108.028C44.39 107.228 46.04 106.118 47.43 104.698C48.82 103.278 49.93 101.628 50.76 99.7478C51.59 97.8678 52 95.8678 52 93.7478C52 91.6278 51.59 89.5578 50.76 87.6778C49.93 85.7978 48.8 84.1578 47.36 82.7678C45.92 81.3778 44.25 80.2778 42.35 79.4778C40.45 78.6778 34.6 78.3378 32.4 78.3878H4.45999C4.16999 78.3078 3.88 78.2578 3.56 78.2578H0.0500183V78.3778H0V80.3878C0 80.6278 0.0200183 80.8478 0.0500183 81.0778V129.948C0.0500183 130.928 0.390007 131.768 1.07001 132.468C1.75001 133.168 2.58 133.518 3.56 133.518H7.07001V85.3478H32.76C33.93 85.3478 38.84 85.5378 39.89 85.9778C40.94 86.4178 41.85 87.0078 42.63 87.7578C43.41 88.5078 44.03 89.3978 44.5 90.4278C44.96 91.4578 45.19 92.5678 45.19 93.7578C45.19 94.9478 44.96 96.0578 44.5 97.0878C44.04 98.1178 43.41 99.0078 42.63 99.7578C41.85 100.508 40.94 101.108 39.89 101.578C38.84 102.038 33.93 102.308 32.76 102.308H18.06C22.59 107.928 26.31 112.548 29.21 116.158C32.11 119.768 34.43 122.658 36.16 124.828C37.89 126.998 39.17 128.598 40 129.628C40.83 130.658 41.41 131.378 41.76 131.798C42.1 132.208 42.32 132.468 42.42 132.568C42.52 132.668 42.71 132.908 43.01 133.268L43.16 133.118C43.84 133.478 44.62 133.658 45.5 133.658H52.01C50.84 132.218 49.84 130.978 49.01 129.948C48.18 128.918 47.41 127.938 46.71 127.008L46.7 126.978Z" fill="black"/>
<path d="M358.1 0.517578C357.12 0.517578 356.3 0.867574 355.61 1.56757C354.93 2.26757 354.59 3.10758 354.59 4.08758V46.7876L321.31 1.45757C320.87 0.837573 320.29 0.527573 319.55 0.527573H312.46V55.7776H315.97C316.94 55.7776 317.77 55.4276 318.46 54.7276C319.14 54.0276 319.48 53.1876 319.48 52.2076V9.50758L352.69 54.8376C353.13 55.4576 353.71 55.7676 354.44 55.7676H361.61V0.517578H358.1Z" fill="black"/>
<path d="M241.98 55.7672C242.52 55.7672 242.96 55.5872 243.3 55.2272C243.64 54.8672 243.81 54.4272 243.81 53.9072V27.2472C243.81 23.3172 244.82 19.7072 246.84 16.3972C248.86 13.0872 251.61 10.5372 255.07 8.72721L256.79 8.1872C261.69 7.0172 266.79 6.9772 271.71 8.0672L272.11 8.15721C272.59 8.32721 273.03 8.4972 273.45 8.6472C273.5 8.6672 273.54 8.69721 273.58 8.72721C277.04 10.5372 279.79 13.0972 281.81 16.3972C283.83 19.7072 284.84 23.3172 284.84 27.2472V53.9072C284.84 54.4272 285.01 54.8672 285.35 55.2272C285.69 55.5872 286.11 55.7672 286.59 55.7672H291.56V27.2472C291.56 24.2472 291.1 21.3572 290.17 18.5672C289.24 15.7772 287.94 13.2172 286.26 10.8972C284.58 8.5672 282.57 6.5472 280.23 4.8172C277.89 3.0872 275.31 1.77721 272.48 0.907206L271.16 0.517206L270.98 0.4872C266.74 -0.1328 262.44 -0.162794 258.2 0.407206L257.41 0.517206L256.17 0.907206C253.29 1.83721 250.67 3.1672 248.31 4.8972C245.94 6.6272 243.92 8.66721 242.24 11.0172C240.56 13.3672 239.27 15.9472 238.36 18.7672C237.46 21.5772 237.03 24.5372 237.08 27.6372V55.7672H241.98ZM271.73 8.0272C271.67 8.0072 271.63 7.9872 271.61 7.9872C271.63 7.9872 271.66 8.0072 271.73 8.0272Z" fill="black"/>
<path d="M213.62 55.7278C212.45 55.7278 211.45 55.3878 210.62 54.7178C209.79 54.0478 209.38 53.1878 209.38 52.1478V15.4678L187.44 53.6278C187 54.4578 186.33 55.0778 185.43 55.4978C184.53 55.9178 183.58 56.1178 182.58 56.1178C181.58 56.1178 180.63 55.9078 179.73 55.4978C178.83 55.0878 178.16 54.4578 177.72 53.6278L155.78 15.4678V52.1478C155.78 53.1878 155.37 54.0478 154.54 54.7178C153.71 55.3978 152.71 55.7278 151.54 55.7278H148.98L148.91 0.507812H152.64C154.2 0.507812 155.35 1.10781 156.08 2.29781L182.63 49.4978L209.11 2.29781C209.84 1.10781 210.99 0.507812 212.55 0.507812H216.28L216.21 55.7278H213.65H213.62Z" fill="black"/>
<path d="M122.79 0.517578C122.25 0.517578 121.81 0.697571 121.47 1.05757C121.13 1.41757 120.96 1.85757 120.96 2.37757V29.0376C120.96 32.9676 119.95 36.5776 117.93 39.8876C115.91 43.1976 113.16 45.7476 109.7 47.5576L107.98 48.0976C103.08 49.2676 97.98 49.3076 93.06 48.2176L92.66 48.1276C92.18 47.9576 91.74 47.7876 91.32 47.6376C91.27 47.6176 91.23 47.5876 91.19 47.5576C87.73 45.7476 84.98 43.1876 82.96 39.8876C80.94 36.5776 79.93 32.9676 79.93 29.0376V2.37757C79.93 1.85757 79.76 1.41757 79.42 1.05757C79.08 0.697571 78.66 0.517578 78.18 0.517578H73.21V29.0376C73.21 32.0376 73.67 34.9276 74.6 37.7176C75.53 40.5076 76.83 43.0676 78.51 45.3876C80.19 47.7176 82.2 49.7376 84.54 51.4676C86.88 53.1976 89.46 54.5076 92.29 55.3776L93.61 55.7676L93.79 55.7976C98.03 56.4176 102.33 56.4476 106.57 55.8776L107.36 55.7676L108.6 55.3776C111.48 54.4476 114.1 53.1176 116.46 51.3876C118.83 49.6576 120.85 47.6176 122.53 45.2676C124.21 42.9176 125.5 40.3376 126.41 37.5176C127.31 34.7076 127.74 31.7476 127.69 28.6476V0.517578H122.79ZM93.04 48.2576C93.1 48.2776 93.14 48.2976 93.16 48.2976C93.14 48.2976 93.11 48.2776 93.04 48.2576Z" fill="black"/>
<path d="M50.91 1.55781C50.19 0.857808 49.31 0.507812 48.28 0.507812H44.56V21.2778H7.02002V4.07781C7.02002 3.09781 6.68 2.25781 6 1.55781C5.32 0.857808 4.49001 0.507812 3.51001 0.507812H0V52.1978C0 53.1778 0.34002 54.0178 1.02002 54.7178C1.70002 55.4178 2.53001 55.7678 3.51001 55.7678H7.02002V28.0978H44.56V52.1978C44.56 53.1778 44.92 54.0178 45.64 54.7178C46.36 55.4178 47.24 55.7678 48.27 55.7678H51.99V4.07781C51.99 3.09781 51.63 2.25781 50.91 1.55781Z" fill="black"/>
</svg>
