<svg width="362" height="57" viewBox="0 0 362 57" fill="none" xmlns="http://www.w3.org/2000/svg">
<path d="M358.1 0.517578C357.12 0.517578 356.3 0.867574 355.61 1.56757C354.93 2.26757 354.59 3.10758 354.59 4.08758V46.7876L321.31 1.45757C320.87 0.837573 320.29 0.527573 319.55 0.527573H312.46V55.7776H315.97C316.94 55.7776 317.77 55.4276 318.46 54.7276C319.14 54.0276 319.48 53.1876 319.48 52.2076V9.50758L352.69 54.8376C353.13 55.4576 353.71 55.7676 354.44 55.7676H361.61V0.517578H358.1Z" fill="black"/>
<path d="M241.98 55.7672C242.52 55.7672 242.96 55.5872 243.3 55.2272C243.64 54.8672 243.81 54.4272 243.81 53.9072V27.2472C243.81 23.3172 244.82 19.7072 246.84 16.3972C248.86 13.0872 251.61 10.5372 255.07 8.72721L256.79 8.1872C261.69 7.0172 266.79 6.9772 271.71 8.0672L272.11 8.15721C272.59 8.32721 273.03 8.4972 273.45 8.6472C273.5 8.6672 273.54 8.69721 273.58 8.72721C277.04 10.5372 279.79 13.0972 281.81 16.3972C283.83 19.7072 284.84 23.3172 284.84 27.2472V53.9072C284.84 54.4272 285.01 54.8672 285.35 55.2272C285.69 55.5872 286.11 55.7672 286.59 55.7672H291.56V27.2472C291.56 24.2472 291.1 21.3572 290.17 18.5672C289.24 15.7772 287.94 13.2172 286.26 10.8972C284.58 8.5672 282.57 6.5472 280.23 4.8172C277.89 3.0872 275.31 1.77721 272.48 0.907206L271.16 0.517206L270.98 0.4872C266.74 -0.1328 262.44 -0.162794 258.2 0.407206L257.41 0.517206L256.17 0.907206C253.29 1.83721 250.67 3.1672 248.31 4.8972C245.94 6.6272 243.92 8.66721 242.24 11.0172C240.56 13.3672 239.27 15.9472 238.36 18.7672C237.46 21.5772 237.03 24.5372 237.08 27.6372V55.7672H241.98ZM271.73 8.0272C271.67 8.0072 271.63 7.9872 271.61 7.9872C271.63 7.9872 271.66 8.0072 271.73 8.0272Z" fill="black"/>
<path d="M213.62 55.7278C212.45 55.7278 211.45 55.3878 210.62 54.7178C209.79 54.0478 209.38 53.1878 209.38 52.1478V15.4678L187.44 53.6278C187 54.4578 186.33 55.0778 185.43 55.4978C184.53 55.9178 183.58 56.1178 182.58 56.1178C181.58 56.1178 180.63 55.9078 179.73 55.4978C178.83 55.0878 178.16 54.4578 177.72 53.6278L155.78 15.4678V52.1478C155.78 53.1878 155.37 54.0478 154.54 54.7178C153.71 55.3978 152.71 55.7278 151.54 55.7278H148.98L148.91 0.507812H152.64C154.2 0.507812 155.35 1.10781 156.08 2.29781L182.63 49.4978L209.11 2.29781C209.84 1.10781 210.99 0.507812 212.55 0.507812H216.28L216.21 55.7278H213.65H213.62Z" fill="black"/>
<path d="M122.79 0.517578C122.25 0.517578 121.81 0.697571 121.47 1.05757C121.13 1.41757 120.96 1.85757 120.96 2.37757V29.0376C120.96 32.9676 119.95 36.5776 117.93 39.8876C115.91 43.1976 113.16 45.7476 109.7 47.5576L107.98 48.0976C103.08 49.2676 97.98 49.3076 93.06 48.2176L92.66 48.1276C92.18 47.9576 91.74 47.7876 91.32 47.6376C91.27 47.6176 91.23 47.5876 91.19 47.5576C87.73 45.7476 84.98 43.1876 82.96 39.8876C80.94 36.5776 79.93 32.9676 79.93 29.0376V2.37757C79.93 1.85757 79.76 1.41757 79.42 1.05757C79.08 0.697571 78.66 0.517578 78.18 0.517578H73.21V29.0376C73.21 32.0376 73.67 34.9276 74.6 37.7176C75.53 40.5076 76.83 43.0676 78.51 45.3876C80.19 47.7176 82.2 49.7376 84.54 51.4676C86.88 53.1976 89.46 54.5076 92.29 55.3776L93.61 55.7676L93.79 55.7976C98.03 56.4176 102.33 56.4476 106.57 55.8776L107.36 55.7676L108.6 55.3776C111.48 54.4476 114.1 53.1176 116.46 51.3876C118.83 49.6576 120.85 47.6176 122.53 45.2676C124.21 42.9176 125.5 40.3376 126.41 37.5176C127.31 34.7076 127.74 31.7476 127.69 28.6476V0.517578H122.79ZM93.04 48.2576C93.1 48.2776 93.14 48.2976 93.16 48.2976C93.14 48.2976 93.11 48.2776 93.04 48.2576Z" fill="black"/>
<path d="M50.91 1.55781C50.19 0.857808 49.31 0.507812 48.28 0.507812H44.56V21.2778H7.02002V4.07781C7.02002 3.09781 6.68 2.25781 6 1.55781C5.32 0.857808 4.49001 0.507812 3.51001 0.507812H0V52.1978C0 53.1778 0.34002 54.0178 1.02002 54.7178C1.70002 55.4178 2.53001 55.7678 3.51001 55.7678H7.02002V28.0978H44.56V52.1978C44.56 53.1778 44.92 54.0178 45.64 54.7178C46.36 55.4178 47.24 55.7678 48.27 55.7678H51.99V4.07781C51.99 3.09781 51.63 2.25781 50.91 1.55781Z" fill="black"/>
</svg>
