<svg width="535" height="56" viewBox="0 0 535 56" fill="none" xmlns="http://www.w3.org/2000/svg">
<path d="M533.64 33.7598C532.84 31.8798 531.74 30.2498 530.35 28.8598C528.96 27.4698 527.34 26.3598 525.49 25.5398C523.64 24.7198 511.05 24.2998 508.96 24.2998H507.78C507.54 24.2498 507.29 24.2198 507.02 24.2198C505.85 24.2198 497.03 23.9998 495.98 23.5598C494.93 23.1198 494.03 22.5198 493.27 21.7498C492.51 20.9798 491.9 20.0598 491.44 19.0098C490.98 17.9598 490.75 16.8398 490.75 15.6498C490.75 14.4598 490.98 13.3598 491.44 12.3298C491.9 11.2998 492.51 10.3998 493.27 9.62981C494.03 8.85981 494.93 8.23982 495.98 7.77982C497.03 7.31982 498.14 7.08982 499.31 7.08982H529.15C530.13 7.08982 530.95 6.73981 531.64 6.04981C532.32 5.34981 532.66 4.48981 532.66 3.45981V0.219805H499.82C497.63 0.119805 495.57 0.469814 493.64 1.25981C491.71 2.05981 490.04 3.15981 488.63 4.57981C487.21 5.99981 486.09 7.65982 485.27 9.55982C484.44 11.4598 484.03 13.4998 484.03 15.6598C484.03 17.8198 484.43 19.8398 485.24 21.7198C486.04 23.5998 487.14 25.2298 488.53 26.6198C489.92 28.0098 491.54 29.1198 493.39 29.9398C495.24 30.7598 504.93 31.1798 507.02 31.1798H508.22C508.39 31.2098 508.56 31.2498 508.75 31.2598C510.16 31.2598 522.03 31.5198 523.13 32.0298C524.23 32.5398 525.14 33.2098 525.87 34.0398C526.6 34.8598 527.16 35.7798 527.55 36.7798C527.94 37.7798 528.14 38.7998 528.14 39.8298C528.14 40.9598 527.92 42.0398 527.48 43.0698C527.04 44.0998 526.46 44.9998 525.72 45.7698C524.99 46.5398 524.14 47.1598 523.16 47.6198C522.18 48.0798 521.14 48.3398 520.02 48.3898H487.55C486.57 48.3898 485.75 48.7398 485.06 49.4298C484.38 50.1198 484.04 50.9598 484.04 51.9398V55.2598H520.61C522.66 55.1098 524.55 54.5898 526.28 53.7198C528.01 52.8398 529.51 51.7098 530.78 50.3198C532.05 48.9298 533.05 47.3398 533.78 45.5298C534.51 43.7298 534.88 41.8198 534.88 39.8198C534.88 37.6598 534.48 35.6398 533.67 33.7598H533.64Z" fill="black"/>
<path d="M439.27 7.09875C436.44 7.09875 433.78 7.63876 431.3 8.72876C428.81 9.80876 426.63 11.2988 424.75 13.1788C422.87 15.0588 421.4 17.2588 420.32 19.7588C419.25 22.2588 418.71 24.9588 418.71 27.8488C418.71 30.7388 419.25 33.3588 420.32 35.8588C421.39 38.3588 422.87 40.5588 424.75 42.4388C426.63 44.3188 428.81 45.8088 431.3 46.8888C433.79 47.9688 436.44 48.5188 439.27 48.5188H459.31C460.28 48.5188 461.11 48.8688 461.8 49.5588C462.48 50.2588 462.82 51.0988 462.82 52.0688V55.3988H437.88C434.27 55.1888 430.89 54.3288 427.75 52.8088C424.6 51.2888 421.86 49.2888 419.52 46.8088C417.18 44.3288 415.34 41.4688 414 38.2188C412.66 34.9688 411.99 31.5088 411.99 27.8488C411.99 24.1888 412.66 20.6488 414 17.3988C415.34 14.1488 417.18 11.2888 419.52 8.80876C421.86 6.32876 424.6 4.32876 427.75 2.80876C430.89 1.28876 434.27 0.41875 437.88 0.21875H462.82V3.54875C462.82 4.52875 462.48 5.36876 461.8 6.06876C461.12 6.76876 460.29 7.10876 459.31 7.10876H439.27V7.09875Z" fill="black"/>
<path d="M387.26 55.26C386.28 55.26 385.44 54.91 384.76 54.21C384.07 53.51 383.73 52.67 383.73 51.69V0H387.26C388.24 0 389.08 0.349988 389.76 1.04999C390.45 1.74999 390.79 2.58999 390.79 3.56999V55.26H387.26Z" fill="black"/>
<path d="M362.53 3.56999C362.53 2.58999 362.2 1.74999 361.54 1.04999C360.88 0.349988 360.06 0 359.07 0H313.14V3.32999C313.14 4.30999 313.48 5.14999 314.17 5.84999C314.86 6.54999 315.69 6.89999 316.67 6.89999H334.33V51.69C334.33 52.67 334.67 53.51 335.36 54.21C336.05 54.91 336.88 55.26 337.86 55.26H341.39V6.89999H362.51V3.56999H362.53Z" fill="black"/>
<path d="M293.25 27.8684C293.25 31.6484 292.49 35.2184 290.96 38.5884C289.43 41.9584 287.36 44.8884 284.75 47.4084C282.13 49.9184 279.08 51.8984 275.59 53.3484C272.1 54.7984 268.35 55.5184 264.37 55.5184C260.39 55.5184 256.63 54.7984 253.11 53.3484C249.59 51.8984 246.52 49.9184 243.91 47.4084C241.29 44.8984 239.22 41.9584 237.7 38.5884C236.17 35.2184 235.41 31.6484 235.41 27.8684C235.41 24.0884 236.17 20.4384 237.7 17.0684C239.23 13.7084 241.3 10.7684 243.91 8.25844C246.52 5.74844 249.59 3.76844 253.11 2.31844C256.63 0.868436 260.38 0.148438 264.37 0.148438C268.36 0.148438 272.1 0.878436 275.59 2.31844C279.08 3.76844 282.14 5.74844 284.75 8.25844C287.36 10.7684 289.44 13.7084 290.96 17.0684C292.49 20.4384 293.25 24.0384 293.25 27.8684ZM264.36 7.05844C261.36 7.05844 258.54 7.59843 255.89 8.68843C253.25 9.77843 250.93 11.2684 248.94 13.1584C246.95 15.0484 245.38 17.2484 244.24 19.7584C243.1 22.2684 242.53 24.9784 242.53 27.8784C242.53 30.7784 243.1 33.4084 244.24 35.9184C245.38 38.4284 246.95 40.6284 248.94 42.5184C250.93 44.4084 253.25 45.8984 255.89 46.9884C258.53 48.0784 261.35 48.6184 264.36 48.6184C267.37 48.6184 270.19 48.0784 272.83 46.9884C275.47 45.8984 277.77 44.4084 279.74 42.5184C281.71 40.6284 283.26 38.4284 284.4 35.9184C285.54 33.4084 286.11 30.7284 286.11 27.8784C286.11 25.0284 285.54 22.2784 284.4 19.7584C283.26 17.2484 281.71 15.0484 279.74 13.1584C277.77 11.2684 275.47 9.77843 272.83 8.68843C270.19 7.59843 267.37 7.05844 264.36 7.05844Z" fill="black"/>
<path d="M213.18 15.7691C213.18 17.2091 213.02 18.5191 212.7 19.6791C212.38 20.8391 211.99 21.8691 211.53 22.7791C211.07 23.6791 210.59 24.4391 210.1 25.0591C209.61 25.6791 209.2 26.1991 208.86 26.6091C211.1 28.2591 212.89 30.1291 214.24 32.2191C215.58 34.3091 216.25 36.8791 216.25 39.9191C216.25 41.9291 215.88 43.8291 215.15 45.6091C214.42 47.3891 213.43 48.9791 212.19 50.3691C210.95 51.7591 209.48 52.8991 207.8 53.7691C206.12 54.6491 204.3 55.1891 202.35 55.3991H148.88V52.0691C148.88 51.0891 149.22 50.2491 149.9 49.5591C150.58 48.8591 151.41 48.5191 152.39 48.5191H201.47C202.54 48.4691 203.57 48.2091 204.54 47.7491C205.51 47.2891 206.37 46.6491 207.1 45.8491C207.83 45.0491 208.42 44.1491 208.85 43.1391C209.29 42.1291 209.51 41.0591 209.51 39.9291C209.51 38.7991 209.28 37.6391 208.82 36.5991C208.36 35.5691 207.75 34.6691 206.99 33.8891C206.23 33.1191 205.33 32.4991 204.28 32.0291C203.23 31.5691 202.12 31.3291 200.95 31.3291H199.12C198.63 31.3291 197.79 31.3191 196.6 31.2891C195.41 31.2591 193.49 31.2491 190.86 31.2491H152.38C151.4 31.2491 150.58 30.8991 149.89 30.2091C149.21 29.5091 148.87 28.6791 148.87 27.6991V24.3691H197.81C198.98 24.3691 200.09 24.1391 201.14 23.6691C202.19 23.2091 203.1 22.5891 203.88 21.8091C204.66 21.0391 205.27 20.1291 205.71 19.0991C206.15 18.0691 206.37 16.9591 206.37 15.7691C206.37 14.5791 206.15 13.4591 205.71 12.3991C205.27 11.3391 204.66 10.4291 203.88 9.64914C203.1 8.87914 202.19 8.25914 201.14 7.78914C200.09 7.32914 198.98 7.08914 197.81 7.08914H152.38C151.4 7.08914 150.58 6.73913 149.89 6.04913C149.21 5.34913 148.87 4.51914 148.87 3.52914V0.199142H195.43C196.38 0.199142 197.09 0.189134 197.55 0.159134C198.01 0.129134 198.44 0.119141 198.83 0.119141V0.199142C200.83 0.349142 202.69 0.859137 204.43 1.70914C206.16 2.55914 207.67 3.67913 208.96 5.07913C210.25 6.46913 211.28 8.08914 212.03 9.91914C212.79 11.7491 213.16 13.6991 213.16 15.7591L213.18 15.7691Z" fill="black"/>
<path d="M129.37 27.8684C129.37 31.6484 128.61 35.2184 127.08 38.5884C125.55 41.9584 123.48 44.8884 120.87 47.4084C118.25 49.9184 115.2 51.8984 111.71 53.3484C108.22 54.7984 104.47 55.5184 100.49 55.5184C96.5098 55.5184 92.7498 54.7984 89.2298 53.3484C85.7098 51.8984 82.6398 49.9184 80.0298 47.4084C77.4098 44.8984 75.3398 41.9584 73.8198 38.5884C72.2898 35.2184 71.5298 31.6484 71.5298 27.8684C71.5298 24.0884 72.2898 20.4384 73.8198 17.0684C75.3498 13.7084 77.4198 10.7684 80.0298 8.25844C82.6398 5.74844 85.7098 3.76844 89.2298 2.31844C92.7498 0.868436 96.4998 0.148438 100.49 0.148438C104.48 0.148438 108.22 0.878436 111.71 2.31844C115.2 3.76844 118.26 5.74844 120.87 8.25844C123.48 10.7684 125.56 13.7084 127.08 17.0684C128.61 20.4384 129.37 24.0384 129.37 27.8684ZM100.48 7.05844C97.4798 7.05844 94.6598 7.59843 92.0098 8.68843C89.3698 9.77843 87.0498 11.2684 85.0598 13.1584C83.0698 15.0484 81.4998 17.2484 80.3598 19.7584C79.2198 22.2684 78.6498 24.9784 78.6498 27.8784C78.6498 30.7784 79.2198 33.4084 80.3598 35.9184C81.4998 38.4284 83.0698 40.6284 85.0598 42.5184C87.0498 44.4084 89.3698 45.8984 92.0098 46.9884C94.6498 48.0784 97.4698 48.6184 100.48 48.6184C103.49 48.6184 106.31 48.0784 108.95 46.9884C111.59 45.8984 113.89 44.4084 115.86 42.5184C117.83 40.6284 119.38 38.4284 120.52 35.9184C121.66 33.4084 122.23 30.7284 122.23 27.8784C122.23 25.0284 121.66 22.2784 120.52 19.7584C119.38 17.2484 117.83 15.0484 115.86 13.1584C113.89 11.2684 111.59 9.77843 108.95 8.68843C106.31 7.59843 103.49 7.05844 100.48 7.05844Z" fill="black"/>
<path d="M46.7 48.7298C45.99 47.7998 45.26 46.8698 44.51 45.9398C43.75 45.0098 42.85 43.8798 41.8 42.5398C40.75 41.1998 39.5 39.5998 38.03 37.7398C39.91 40.1298 36.8 36.1298 32.54 30.9298C34.73 30.9798 40.59 30.5798 42.49 29.7798C44.39 28.9798 46.04 27.8698 47.43 26.4498C48.82 25.0298 49.93 23.3798 50.76 21.4998C51.59 19.6198 52 17.6198 52 15.4998C52 13.3798 51.59 11.3098 50.76 9.42976C49.93 7.54976 48.8 5.90976 47.36 4.51976C45.92 3.12976 44.25 2.02977 42.35 1.22977C40.45 0.429767 34.6 0.0897705 32.4 0.139771H4.45999C4.16999 0.0597705 3.88 0.00976562 3.56 0.00976562H0.0500183V0.129761H0V2.13977C0 2.37977 0.0200183 2.59976 0.0500183 2.82976V51.6998C0.0500183 52.6798 0.390007 53.5198 1.07001 54.2198C1.75001 54.9198 2.58 55.2698 3.56 55.2698H7.07001V7.09976H32.76C33.93 7.09976 38.84 7.28977 39.89 7.72977C40.94 8.16977 41.85 8.75977 42.63 9.50977C43.41 10.2598 44.03 11.1498 44.5 12.1798C44.96 13.2098 45.19 14.3198 45.19 15.5098C45.19 16.6998 44.96 17.8098 44.5 18.8398C44.04 19.8698 43.41 20.7598 42.63 21.5098C41.85 22.2598 40.94 22.8598 39.89 23.3298C38.84 23.7898 33.93 24.0598 32.76 24.0598H18.06C22.59 29.6798 26.31 34.2998 29.21 37.9098C32.11 41.5198 34.43 44.4098 36.16 46.5798C37.89 48.7498 39.17 50.3498 40 51.3798C40.83 52.4098 41.41 53.1298 41.76 53.5498C42.1 53.9598 42.32 54.2198 42.42 54.3198C42.52 54.4198 42.71 54.6598 43.01 55.0198L43.16 54.8698C43.84 55.2298 44.62 55.4098 45.5 55.4098H52.01C50.84 53.9698 49.84 52.7298 49.01 51.6998C48.18 50.6698 47.41 49.6898 46.71 48.7598L46.7 48.7298Z" fill="black"/>
</svg>
