<?xml version="1.0" encoding="UTF-8"?><svg id="Layer_2" xmlns="http://www.w3.org/2000/svg" viewBox="0 0 594.73 92.55"><defs><style>.cls-1{fill:#fff;}</style></defs><g id="Camada_1"><path class="cls-1" d="m351.33,91.65c-1.92,0-3.57-.55-4.93-1.67-1.36-1.11-2.05-2.52-2.05-4.23V25.43l-36.09,62.76c-.72,1.37-1.83,2.39-3.31,3.07-1.48.69-3.05,1.02-4.69,1.02s-3.21-.34-4.69-1.02c-1.49-.68-2.59-1.71-3.31-3.07l-36.09-62.76v60.33c0,1.71-.68,3.12-2.04,4.23-1.37,1.11-3.01,1.67-4.93,1.67h-4.21l-.12-90.81h6.13c2.57,0,4.45.98,5.65,2.95l43.67,77.62L343.87,3.79c1.2-1.96,3.09-2.95,5.65-2.95h6.13l-.12,90.81h-4.21Z"/><path class="cls-1" d="m588.96.84c-1.6,0-2.97.57-4.09,1.72-1.12,1.15-1.68,2.53-1.68,4.14v70.23L528.45,2.37c-.72-1.02-1.69-1.53-2.89-1.53h-11.67v90.87h5.77c1.6,0,2.96-.57,4.09-1.72,1.12-1.15,1.68-2.53,1.68-4.14V15.62l54.61,74.56c.72,1.02,1.68,1.53,2.89,1.53h11.79V.84h-5.77Z"/><path class="cls-1" d="m83.74,2.56c-1.19-1.15-2.63-1.72-4.33-1.72h-6.12v34.16H11.55V6.7c0-1.61-.56-2.99-1.68-4.14-1.12-1.15-2.49-1.72-4.09-1.72H0v85.01c0,1.62.56,2.99,1.68,4.14,1.12,1.15,2.49,1.72,4.09,1.72h5.77v-45.5h61.74v39.64c0,1.62.59,2.99,1.78,4.14,1.19,1.15,2.63,1.72,4.33,1.72h6.12V6.7c0-1.61-.6-2.99-1.78-4.14Z"/><path class="cls-1" d="m201.94.84c-.88,0-1.6.3-2.16.89-.56.6-.84,1.32-.84,2.17v43.84c0,6.46-1.66,12.41-4.99,17.84-3.33,5.44-7.84,9.64-13.54,12.62l-2.82.88c-8.06,1.93-16.45,1.99-24.54.2l-.65-.15c-.78-.28-1.52-.56-2.2-.81-.07-.04-.14-.09-.22-.13-5.7-2.97-10.21-7.18-13.53-12.62-3.33-5.44-4.99-11.38-4.99-17.84V3.9c0-.85-.28-1.57-.84-2.17-.56-.59-1.25-.89-2.05-.89h-8.18v46.9c0,4.93.76,9.69,2.29,14.27,1.52,4.59,3.67,8.79,6.44,12.62,2.77,3.82,6.07,7.16,9.92,10.01,3.85,2.85,8.1,4.99,12.75,6.44l2.16.64h0s.3.04.3.04c6.97,1.02,14.04,1.06,21.02.13l1.3-.17,2.05-.64c4.73-1.53,9.04-3.72,12.93-6.56,3.89-2.85,7.22-6.2,9.98-10.07,2.77-3.87,4.89-8.11,6.37-12.75,1.48-4.63,2.18-9.5,2.11-14.59V.84h-8.06Zm-48.93,78.52c.09.03.17.06.2.07-.03,0-.09-.03-.2-.07Z"/><path class="cls-1" d="m397.98,91.71c.88,0,1.6-.3,2.16-.89.56-.6.84-1.32.84-2.17v-43.84c0-6.46,1.66-12.41,4.99-17.84,3.33-5.44,7.84-9.64,13.54-12.62l2.82-.88c8.06-1.93,16.45-1.99,24.54-.2l.65.15c.78.28,1.52.56,2.2.81.07.04.14.09.22.13,5.7,2.97,10.21,7.18,13.53,12.62,3.33,5.44,4.99,11.38,4.99,17.84v43.84c0,.85.28,1.57.84,2.17.56.59,1.25.89,2.05.89h8.18v-46.9c0-4.93-.76-9.69-2.29-14.27-1.52-4.59-3.67-8.79-6.44-12.62-2.77-3.82-6.07-7.16-9.92-10.01-3.85-2.85-8.1-4.99-12.75-6.44l-2.16-.64h0s-.3-.04-.3-.04c-6.97-1.02-14.04-1.06-21.02-.13l-1.3.17-2.05.64c-4.73,1.53-9.04,3.72-12.93,6.56-3.89,2.85-7.22,6.2-9.98,10.07-2.77,3.87-4.89,8.11-6.37,12.75-1.48,4.63-2.18,9.5-2.11,14.59v46.26h8.06Zm48.93-78.52c-.09-.03-.17-.06-.2-.07.03,0,.09.03.2.07Z"/></g></svg>