<?xml version="1.0" encoding="UTF-8"?><svg id="Layer_2" xmlns="http://www.w3.org/2000/svg" viewBox="0 0 678.21 678.21"><defs><style>.cls-1{fill:#e32528;fill-rule:evenodd;}</style></defs><g id="Camada_1"><g id="Capa_1"><path class="cls-1" d="m427.14,102.33c-1.94,3.22-4.2,8.23-5.83,12.06-1.69,3.96-4.3,9.49-5.28,13.22-1.65,1.26-22.77,50.91-26.21,59.45-2.21,5.5-5.91,15.13-8.77,20.25l-3.56-.83c2.73-7.52,5.96-11.72,8.92-21.68,7.3-24.51-1.99-38.57,1.56-56.16,1.85-9.21,6.43-14.27,10.12-20.69,11.1-19.24.41-31.22-.11-50.79-.21-8.18,2.95-18.1,5.39-24.83,1.29-3.57,3.06-8.22,3.53-11.88,1.24-9.45-7.47-13.2-20.08,12.17-17.19,34.61,7.05,46.07-12.26,73.96-23.59,34.03,6.33,51.05-19.48,91.18-1.61,2.51-1.47,3.6-4.39,3.86-.55-34.67-1.01-69.05-1.86-103.73-.41-17.23-1.11-88.82-7.86-97.8-5.25-.66-5.66,2.41-6.48,7.01-4.78,26.84-5.8,112.08-6.24,141.49-.26,17.48-.04,35.62-.71,53l-3.81.27c2.38-49.59-9.51-44.61-18.76-71.53-3.44-10.03-1.22-16.62.14-26.83,2.71-20.28-10-30.93-17.32-43.38-4.63-7.92-5.53-14.4-6.33-24.57-.41-5.23.36-25.7-8.35-21.8-4.73,2.12-6.64,16.82-7.1,23.31-.71,10.12-.29,18.66,3.53,26.74,7.1,15.08,17.93,24.32,13.67,45.69-7.45,37.41,14.25,41.05,17.5,71.05.59,5.46,1.03,24.16-2.95,26.86-1.16-.73-.1.22-.89-.86-2.26-3.08-7.96-18.47-9.69-22.32-3.51-7.85-6.71-15.56-10.2-23.6-1.77-4.11-3.33-7.76-5.11-11.79-13.44-30.38-38.63-89.9-53.65-115.25-2.09-3.52-4.56-9.01-9.5-7.75-5.63,3.53,10.26,43.29,12.47,49.62,14.11,40.17,30,78.24,45.33,117.76,2.08,5.36,8.32,18.78,9.1,23.48l-2.86,1.43c-4.24-5.64-3.17-21.28-26.01-42.41-16.48-15.23-22.46-12.91-28.71-39.46-6.4-27.25-28.42-25.27-41.32-43.68-7.58-10.81-14.15-32.23-21.35-29.98-9,2.81,2.71,38.31,13.58,48.2,13.44,12.22,26.56,16.71,30.7,37.52,4.51,22.73,11.94,27.94,27.34,40.73,6.35,5.29,11.47,9.77,16.06,18.3,2.09,3.89,3.61,7.45,5.13,11.77.84,2.38,1.38,4.29,1.95,6.78.23,1.05.51,2.28.69,3.43l-.23,3.81c-1.64.41-2.79-1.71-4.3-3.38l-77.53-74.49c-3.23-3.65-6.22-5.47-9.4-8.65-6.73-6.72-18.6-16.78-23.19-21.64-4.1-4.33-18.48-16.18-24.44-21.01-1.81-1.45-8.49-7.3-11.96-5.15-5.22,4.06,9.05,18.52,11.66,21.76l12.54,14.26c1.49,1.83,2.99,2.92,4.48,4.82,3.83,4.88,8.55,8.9,12.6,13.64l57.06,59.99c8.52,9.46,17.85,18.32,26.59,27.59,2.23,2.36,6.94,6.1,8.87,8.92-.76,1.74-.99,1.6-2.19,2.99l-3.82-4.3c-1.11-1.42-2.83-2.82-4.03-4.1-8.57-9.07-17.16-15.48-30.41-20.27-22.82-8.24-27.37-4.15-42.55-24.99-21.51-29.55-39.4-6.5-71.5-37.99-1.88-1.84-2.71-2.33-4.73-4.01-2.68-2.22-8.73-6.8-11.42-2.13-4.75,8.25,20.24,33.53,29.22,37.34,21.45,9.12,31.82,4.42,44.54,23,12.54,18.33,15.22,19.48,40.06,27.55,12.22,3.97,23.51,8.99,31.58,19.03,2.48,3.08,5.01,5.88,7.16,9.59,1.03,1.67,3.15,5.37-.96,3.33-12.26-4.24-32.23-12.91-45.8-18.12-40.57-15.6-75.37-29.53-116.9-43.86-5.93-2.04-20.96-8.1-25.85-4.25-1.21,5.13,3.93,7.27,7.38,9.32,8.7,5.2,24.25,12.32,33.7,16.99,33.85,16.72,80.73,36.17,116.87,51.99l23.64,9.99-.99,3.76c-5.56-1.91-9.58-5.51-21.61-8.98-26.16-7.52-38.69,1.68-55.74-1.43-17.36-3.16-21.45-17.8-45.28-14.77-24.9,3.16-19.38,9.45-50.59-.49-3.6-1.14-7.72-2.8-11.59-3.54-9.83-1.93-15.86,6.05,9.48,19.08,6.46,3.32,14.89,7.11,23.09,7.48,21,.95,30.91-9.14,52.04,5.32,17.93,12.26,25.37,10.47,49.89,8.66,15.33-1.13,31.7,2.96,43.68,12.48,1.71,1.37,1.23.29,1.79,2.35l-.86.39c-.76.2-.49.21-1.5.32l-49.08.64c-40.89.58-88.43,1.66-129.15,4.63-5.46.39-20.48.43-21.12,5.71-.75,6.23,14.13,6.23,19.6,6.69,8.37.72,16.86,1.29,25.36,1.66,17.12.74,34.28,1.51,51.4,1.89,17.48.39,34.85.91,52.3,1.16,17.5.26,35.55.04,52.98.74l.31,3.79c-45.63-3.15-47.94,10.34-71.56,18.76-9.59,3.41-17.03,1.15-26.84-.19-20.57-2.78-30.64,10.34-43.33,17.36-8.31,4.6-14.16,5.45-24.53,6.28-5.88.48-25.74-.31-21.72,8.34,3.13,6.76,34.42,10.62,49.93,3.64,15.74-7.09,23.72-18.04,45.75-13.7,43.43,8.55,42.98-21.43,85.33-17.69,2.23.19,4.47.54,6.6.91,2.45.44,4.83.56,5.89,2.24-1.04,1.65-41.56,18.49-46.77,20.77-15.68,6.86-31.37,13.65-46.88,20.7l-40.38,18.49c-2.35,1.11-3.7,1.53-5.97,2.76-8.82,4.75-24.54,11.46-33.8,16.82-3.46,2-9.05,4.52-7.69,9.5,2.83,4.52,21.14-2.81,25.38-4.06l165.45-62.93,1.28,3.01c-.77.56.61-.13-1.15.68l-11.12,4.04c-4.33,1.86-7.26,3.31-11.28,5.65-20.1,11.69-24.29,25.26-34.18,33.94-7.55,6.63-12.49,7.42-24.02,10.37-21.68,5.53-23.84,17.97-35.18,32.95-1.71,2.27-1.26,2.18-3.77,4.37-11.19,9.74-14.04,9.21-26.89,16.19-15.1,8.22-9.36,17.66,18.63,8.18,15.75-5.33,20.77-10.49,29.48-21.8,1.09-1.41,2.4-3.16,3.55-4.58,7.3-9.03,11.92-13.91,26.18-16.91,23.4-4.91,25.7-9.52,40.81-27.36,11.29-13.34,22.29-20.87,40.24-23.84.51-.09,1.52-.23,2-.21,1.75.09.61-.19,1.96.45-.78,2.43-9.89,10.5-11.4,12.52-3.15,3.98-12.26,12.65-16.29,16.51-5.38,5.16-10,11.42-16.27,16.93l-36.08,37.89c-1.4,1.56-2.46,2.76-3.82,4.34-2.38,2.72-5.63,5.58-7.91,8.38-1.57,1.93-1.98,2.22-3.98,4.18-5.45,5.32-29.88,33.45-34.45,39.52-1.68,2.23-7.33,8.14-3.4,11.17,4.25,3.27,18.38-10.02,21.5-12.87l18.83-16.68c6.18-4.99,36.12-33.59,41.44-38.92l23.1-21.77c5.83-6.59,19.4-18.32,27.09-26.5,4.69-4.99,14.38-12.81,18.15-17.75,1.76.81,1.6.59,2.96,2.26-1.31,1.66-2.66,2.42-4.32,3.76-1.51,1.21-2.91,3.03-4.29,4.43-1.53,1.56-2.43,2.2-4.18,3.98-1.61,1.66-2.23,2.96-3.78,4.93-5.44,6.86-8.82,11.75-12.34,22.08-2.99,8.77-4.65,17.29-8.5,25.3-7.72,16.08-24.96,15.38-31.79,36.32-7.36,22.56,1.15,24.29-19.77,48.38-2.31,2.66-18.38,19.88-6.48,19.9,6.1.02,18.12-10.02,21.32-12.64,1.57-1.3,2.48-2.77,3.94-4.21,14.48-14.36,11.42-21.6,18.81-41.16,3.38-8.95,9.21-13.18,16.38-17.98,17.58-11.74,18.9-18.66,26.21-41.95,2.86-9.16,5.94-15.03,11.85-21.94,3.12-3.66,14.86-14.9,19.81-14.69-.65,3.18-3.08,8.26-4.36,11.49-17.17,43.27-33.97,85.58-50,129.41-2.26,6.21-18.09,46.55-12.61,50.05,4.94,1.24,7.4-4.04,9.27-7.42,11.32-20.49,28.48-57.98,38.13-80.08l30.87-70.46c1.72-4.1,3.24-7.99,5-11.87,1.68-3.73,3.91-8.14,4.95-11.8l3.74,1.01-2.31,4.28c-2.57,8.1-4.92,9.74-7.94,22.44-5.28,22.17,4.07,39.28-1.32,55.19-2.54,7.51-7.32,12.89-10.64,19.61-8.99,18.21,2.79,33.18,1.71,51.28-.48,7.92-3.96,16.89-6.28,23.94-1.06,3.2-3.02,8.41-2.73,12.09.47,5.97,5.95,4.48,8.81,2.16,6.9-5.61,18.33-28.01,18.12-41.69-.39-24.64-8.32-29.11,5.96-50.16,20.44-30.11-.19-43.62,11.44-75.36,2.31-6.3,4.22-9.81,7.6-15.11.57-.91.89-1.51,1.36-2.11,1.51-2,.56-1.31,2.39-1.68,1.41,2.06,1.28,45.73,1.36,51.83.52,38.07,1.46,91.24,4.59,128.73.47,5.6.44,20.41,5.76,21.09,6.16.8,6.22-14.24,6.66-19.65,4.88-58.8,3.51-123.01,5.44-182l3.84-.32c-1.63,20.55-.24,35.36,8.62,51.38,3.56,6.45,7.62,12.98,10.09,20.17,6.59,19.07-7.97,29.86,5.05,51.5,10.59,17.6,16.32,18.18,18.45,43.27.51,5.98-.38,25.6,8.35,21.77,4.73-2.08,6.76-16.86,7.1-23.26.51-9.65.3-18.58-3.51-26.76-7.07-15.23-17.9-24.19-13.69-45.72,7.53-38.55-14.46-41.66-17.5-71.03-.56-5.44-1.01-24.34,2.96-26.81,1.54,1.01,2.18,3.59,2.88,5.23.87,2.06,1.69,3.92,2.62,6.13,1.71,4.01,3.34,7.71,5.09,11.82l30.83,70.51c7.27,16.37,28.78,64.68,38.1,80.13,2.23,3.68,4.35,8.92,9.57,7.77,5.28-3.33-8.77-38.91-11.14-45.8-4.92-14.39-10.6-28.96-16.1-43.34-7.8-20.38-16.63-44.16-24.94-64.12-1.68-4.03-7.06-18.9-8.55-20.77-.94-2.89-1.95-5.4-3.03-8.41-1.02-2.87-2.49-5.81-3.36-8.57,1.1-.37,2.13-.9,3.08-1.33l.54.79c1.58,2.98,1.61,5.64,2.89,8.75l4.46,8.59c.35,3.57,6.05,11.32,8.55,14.6,9.72,12.76,28.39,20.25,34.75,36.29,3.21,8.09,3.32,16.12,7.48,23.99,6.64,12.53,24.4,18.7,34.2,28.71,4.8,4.9,8.52,12.22,12,19.43,1.71,3.52,5.56,12.55,9.23,14.09,2.59,1.08,4.55.07,5.52-1.58,2.92-5-2.04-20.97-3.69-25.87-2.69-7.95-6.73-15.36-11.52-19.95-5.29-5.05-11.7-9.35-17.33-14.13-24.54-20.86-3.59-34.05-35.06-59.28-9.64-7.74-17.36-13.94-22.72-24.47-1.54-3.03-3.55-8.71-4.88-10.87-.35-1.7-1.58-7.9-2.62-8.92.34-5.85-1.52-8.79,6.37-.05,5,5.56,21.84,21.13,28.13,27.21l27.86,26.89c11.92,10.82,31.48,30.49,42.75,39.96l14.36,13.01c6.46,5.88,12.71,11.71,19.75,16.96,3.06,2.28,7.51,7.05,12.63,5.01,1.91-4.85-2.31-8.92-4.53-11.95-6.24-8.5-13.88-16.54-20.62-24.26l-8.8-9.23c-4.4-4.43-8.02-9.68-12.75-14.05-3.73-3.45-5.35-6.06-8.77-9.29l-17.23-18.3c-8.51-9.42-17.66-18.3-26.6-27.55l-35.17-36.31c.66-1.52.62-1.43,2.16-2.86l3.83,4.28c3.13,4.01,9.06,9.1,13.16,12.46,17.28,14.15,30.3,12.09,47.5,20.65,16.53,8.21,16.26,25.02,36.32,31.8,8.75,2.96,19.15,3.35,28.06,6.31,12.26,4.06,20.07,13.74,29.49,21.15,11.59,9.15,16.85-2.41-2-22.47-18.73-19.93-23.32-13.72-45.32-22.82-16.6-6.87-19.63-25.03-34.71-33.45-10.87-6.07-25.83-8.05-37.22-13.99-4.36-2.28-6.82-4.84-10-7.49-3.63-3.03-5.2-4.71-8.44-8.46-1.32-1.53-10.54-12.72-3.41-10.04l44.58,17.79c20.25,7.71,51.34,21.09,71.88,27.69,7.87,2.53,15.85,6.12,24.22,9.01.11.04,56.91,22.52,47.09,7.72-4.87-7.32-73.65-37.54-88.64-44.23l-69.32-30.27c-6.85-2.98-16.71-6.48-23.1-9.99l.87-3.55c7.2,2.57,11.11,5.7,21.64,8.9,24,7.28,38.49-1.98,56.14,1.51,8.15,1.62,14.61,6.63,20.74,10.12,19.65,11.21,31.28.54,50.74-.1,9.02-.3,17.19,2.97,24.87,5.48,3.47,1.14,7.73,2.81,11.67,3.42,5.08.76,9.34-1.71,6.4-6.95-3.85-6.87-27.97-19.58-41.16-19.81-24.34-.44-29.86,8.85-51.19-5.52-31.3-21.09-44.58-.22-76.04-11.88-3.31-1.23-7.7-3.01-10.47-4.64-2.64-1.55-8.31-4.18-8.45-7.28,7.96-.63,17.56-.26,25.64-.36,43.51-.51,86.88-1.35,130.32-3.43,8.22-.4,16.67-.89,24.77-1.59,5.56-.49,20.83-.41,20.89-6.25.05-5.71-14.8-5.72-20.08-6.18-42.83-3.77-86.21-3.99-129.19-4.67-17.25-.27-35.21-.07-52.44-.74l-.28-3.88c21.75,1.61,35.51.08,52.11-9.05,6.08-3.34,13.09-7.62,20.28-9.96,9.74-3.18,17.41-.55,26.95.56,20.05,2.36,30.57-10.91,43.1-17.9,7.84-4.38,14.56-5.06,24.44-5.9,5.83-.49,25.92.07,20.93-8.64-2.66-4.63-17.06-6.38-23.49-6.82-24.12-1.63-26.69,4.46-41.24,11.94-1.66.86-3.38,1.53-5.07,2.5-16.94,9.64-34.32-3.35-52.63,2.63-16.26,5.31-26.38,15.8-44.04,17.67-5.91.62-23.8,1.06-26.86-2.93,1.34-2.09,19.74-8.99,23.24-10.54,38.92-17.28,78.38-33.55,116.84-52.05,11.54-5.55,22.9-10.43,33.68-17.01,3.61-2.2,8.98-4.22,7.8-9.49-3.5-5.64-43.42,10.27-49.62,12.49-16.02,5.75-31.73,11.76-47.46,17.78l-93.81,36.7-1.48-3.47c21.97-5.01,37.64-17.83,50.3-35.13,8.67-11.85,16.03-15.23,32.11-19.15,21.16-5.15,23.69-18.67,34.92-33.2,11.94-15.44,41.94-20.69,38.02-29.73-3.71-8.57-39.03,3.67-48.3,14.21-12.98,14.77-16.52,26.31-37.67,30.52-14.53,2.9-23.76,7.04-32.51,18.12l-16.18,18.18c-6.47,6.53-29.08,17.78-36.08,14.59.78-2.18,6.92-7.24,8.78-9.26,14.38-15.62,30.06-30.26,44.25-46.05,2.98-3.32,5.95-5.85,8.9-9.15,1.48-1.66,2.68-2.98,4.18-4.57l13.41-13.96c4.73-4.29,16.19-17.69,21.5-23.34,1.71-1.82,3.01-3.01,4.52-4.79,8.31-9.76,16.95-18.98,25.08-29.11,8.62-10.74,4.89-17.04-8.55-6.23l-24,20.29c-1.78,1.61-2.98,3.03-4.76,4.55-1.7,1.44-2.83,2.81-4.45,4.27-4.89,4.42-9.49,8-13.99,12.81-3.31,3.53-6.1,5.23-9.3,8.75l-81.85,78.73c-1.56-.66-1.44-.61-2.89-2.16.52-.7-.17.1.85-.89l7.51-7.05c1.09-1.01,2.87-2.55,4.2-3.95,6.78-7.17,12.22-15.49,15.93-25.99,8.45-23.92,5.55-29.44,24.47-42.53,19.09-13.21,16.08-25.15,21.66-45.3,3.67-13.26,12.35-21.23,20.03-30.08,11.02-12.69,3.65-20.73-17.88-2.71-19.9,16.67-16.41,23.18-24.54,45.35-7.3,19.88-22.82,19.02-33.59,35.74-12.39,19.23-3.18,32.05-30.58,56.76-1.14,1.02-11.56,9.94-10.34,4.23l26.14-65.89c13.2-34.3,26.69-69.02,38.17-103.93,1.17-3.57,6.17-17.13,1.92-19.19-4.85-2.37-9.76,8.55-11.56,11.87-4.56,8.4-27.55,54.66-30.57,64.62h0Zm-199.51,341.04c-.18.14-.35.26-.51.37.16-.11.33-.24.51-.37Zm-.51.37c-.11.08-.21.14-.32.21h0c.11-.06.21-.13.32-.21Z"/></g></g></svg>